<svg preserveAspectRatio="none" width="100%" height="100%" overflow="visible" style="display: block;" viewBox="0 0 51.5535 98.7014" fill="none" xmlns="http://www.w3.org/2000/svg">
<g id="Group">
<path id="Vector" d="M51.3392 27.1336C51.6796 28.6092 51.4526 29.9712 51.4526 31.4468C50.8852 31.9008 50.2043 32.2413 50.8852 33.0359C50.9987 34.171 50.7717 35.306 50.4313 36.3276C49.0694 36.5546 49.2964 37.3491 49.6368 38.2572C49.5234 38.4842 49.4099 38.7112 49.2964 38.9382C48.8424 38.5977 48.275 37.5761 47.8211 38.9382C47.5941 39.5057 47.8211 40.3003 47.2536 40.6408C45.8918 41.3218 46.1187 42.5704 46.0052 43.7055L45.8918 43.819C44.1894 44.6135 42.8276 46.2026 40.8983 46.6566C39.8769 46.8836 40.1039 47.6782 39.9904 48.3592C39.7634 48.4727 39.5364 48.5862 39.3095 48.6997C39.196 48.8132 39.0824 48.9267 38.9689 49.0402C38.8555 49.1537 38.6285 49.1538 38.515 49.2673C37.7206 49.1538 37.3802 49.6078 37.3802 50.2888C36.9262 51.1969 36.3588 51.8779 35.6778 52.4454C34.6564 52.4454 33.7485 52.3319 32.8406 52.8994C32.2732 53.1265 31.3653 52.7859 31.2518 53.5805C31.0248 54.602 31.9327 54.602 32.6136 54.8291C33.2946 55.0561 33.0676 55.9641 33.6351 56.3046C33.0676 60.9584 32.3867 65.6121 30.3439 69.9254C28.6416 73.444 24.102 75.2601 20.6974 73.5575C19.7895 73.1035 19.3356 72.1955 18.8816 71.2874C17.7467 68.7903 17.5197 66.0662 17.2928 63.342C16.9523 58.5748 16.9523 53.8075 17.8602 49.1538C18.6546 45.4081 20.1299 42.4569 24.2155 41.0948C26.0313 40.5273 27.7337 39.7327 29.436 38.8247C31.2518 37.8031 32.1597 36.4411 32.5002 34.625C32.8406 32.9224 32.9541 31.2198 33.1811 29.5172C33.5215 26.339 32.6137 23.3879 31.3653 20.5502C31.3653 19.3017 31.4787 18.1666 33.2945 17.5991C31.8192 17.145 30.6843 17.2586 29.7764 17.0315C28.0741 16.464 26.2583 16.01 24.556 16.3505C24.329 16.3505 24.102 16.464 23.875 16.464C19.903 15.783 18.6546 18.2801 19.1085 22.4798C19.1085 22.7068 19.1086 22.8204 18.9951 23.0474C18.4276 23.2744 18.0872 23.6149 17.8602 24.1824C17.0658 24.1824 16.2713 24.1824 16.2713 25.204C16.0444 25.3175 15.7039 25.3175 15.7039 25.431C15.7039 25.885 16.0444 25.658 16.2713 25.7715C16.6118 25.7715 16.9523 25.7715 17.2928 25.7715C17.2928 26.2255 17.4063 26.566 17.7467 26.7931C17.8602 27.2471 17.7467 27.5876 17.4062 27.9281C16.9523 27.9281 16.2714 27.8146 16.1579 28.0416C14.796 29.6307 12.7532 29.8577 11.0509 30.7658C10.0295 31.2198 9.0081 31.5603 7.75973 32.1278C8.66764 32.6954 9.46207 32.5819 10.2565 32.6954C10.4835 34.0575 9.23511 34.625 8.78115 35.76C7.30581 35.306 5.83045 34.9655 4.58208 34.0574C2.76627 32.8089 2.31231 30.7658 1.51789 28.9497C1.74487 28.9497 1.85836 28.9497 2.08533 28.8362C2.4258 28.7227 2.7663 28.6092 2.7663 28.1551C2.7663 28.0416 2.53934 27.9281 2.42585 27.9281C2.08539 27.8146 1.74491 28.0416 1.63142 28.3821C1.63142 28.4957 1.51789 28.7227 1.51789 28.8362C0.609987 28.3821 1.4044 27.0201 0.38301 26.6796C0.0425463 26.2255 -0.0709279 25.658 0.0425602 25.0905C1.40442 24.5229 1.17743 23.7284 0.38301 22.9339C0.0425463 20.0962 1.40444 17.5991 2.7663 15.329C4.6956 12.1508 6.85184 9.08612 9.68904 6.7025C14.1151 2.72978 19.449 0.346154 25.5774 0.119142C28.8685 0.00563572 32.0462 -0.221375 35.2239 0.573168C37.6071 1.1407 39.4229 2.38926 40.8983 3.97835C43.5085 6.816 45.7782 9.88066 47.4805 13.5129C46.9131 14.5344 46.4592 15.556 45.8918 16.691C47.0266 16.918 47.821 17.3721 48.8424 17.2586C48.9559 17.3721 49.0694 17.5991 49.1829 17.7126C48.9559 18.5071 49.1829 18.9611 49.9773 19.0747C49.9773 19.3017 49.9773 19.4152 49.9773 19.6422C48.7289 19.5287 47.7076 20.3232 46.2322 19.7557C46.7996 21.1178 48.275 21.1178 48.502 22.3663C48.7289 24.4094 48.9559 24.4094 51.1122 24.5229C51.1122 25.204 51.1122 25.885 51.1122 26.5661C50.8852 26.6796 50.6583 26.7931 50.4313 26.7931C50.4313 26.9066 50.5447 27.0201 50.5447 27.0201C50.8852 27.0201 50.9987 26.9066 51.2257 26.6796H51.3392V27.1336ZM34.6564 4.20536C33.2946 3.52432 31.8192 3.63783 30.3439 3.97835C31.3653 4.31887 32.3866 4.65938 33.2945 5.34042C34.6564 6.36197 34.7699 5.45393 34.7699 4.43237C34.9969 4.31887 35.2239 4.20536 35.4508 4.09185C35.4508 3.97835 35.3374 3.86484 35.3374 3.86484C34.9969 3.75134 34.7699 3.97835 34.6564 4.20536ZM18.6546 17.3721C18.6546 16.918 18.4276 16.8045 18.2006 16.8045C18.0872 16.8045 17.7467 16.918 17.7467 17.0315C17.6332 17.3721 17.8602 17.4856 18.0872 17.5991C18.3142 17.7126 18.5411 17.5991 18.6546 17.3721Z" fill="var(--fill-0, #724899)"/>
<path id="Vector_2" d="M31.8191 90.4699C31.8191 94.4427 29.0954 97.6208 24.8963 98.1884C23.7614 98.3019 22.6266 99.2099 21.2647 98.3019C19.3354 97.0533 17.7465 95.5777 16.8386 93.4211C15.5903 90.2429 16.7252 86.3837 19.2219 84.1136C21.1512 82.2975 23.5344 82.0705 25.9177 81.8435C27.5065 81.73 28.8684 82.7515 29.5493 83.7731C30.9112 85.4757 31.9326 87.7458 31.8191 90.4699Z" fill="var(--fill-0, #724899)"/>
<path id="Vector_3" d="M1.51809 29.2903C2.31251 31.1064 2.76648 33.036 4.58228 34.398C5.83065 35.3061 7.30601 35.6466 8.78136 36.1006C9.23531 35.0791 10.4837 34.398 10.2567 33.036C11.0511 32.5819 11.2781 32.0144 11.0511 31.1064C12.7534 30.1983 14.7962 29.9713 16.1581 28.3822C16.3851 28.1552 17.066 28.2687 17.4064 28.2687C17.4064 30.7658 16.0446 32.6954 14.6827 34.6251C13.4344 36.5547 11.2781 36.7817 9.23534 37.0087C4.69581 37.3492 2.53953 34.6251 1.06418 31.3334C0.496742 30.0848 -0.297688 28.7227 0.269752 27.2472C1.29114 27.4742 0.496701 28.8362 1.51809 29.2903Z" fill="var(--fill-0, #724899)"/>
<path id="Vector_4" d="M50.8853 24.977C48.729 24.8635 48.502 24.8635 48.2751 22.8204C48.0481 21.4583 46.6862 21.5719 46.0053 20.2098C47.4806 20.7773 48.6155 19.9828 49.7504 20.0963C50.8853 21.4583 51.1122 23.1609 50.8853 24.977Z" fill="var(--fill-0, #724899)"/>
<path id="Vector_5" d="M24.4424 16.5775C26.1447 16.237 27.9606 16.8045 29.6629 17.2585C30.5708 17.4855 31.7057 17.4855 33.181 17.8261C31.3652 18.2801 31.2517 19.5287 31.2517 20.7772C29.4359 18.7341 27.0526 17.4855 24.4424 16.5775Z" fill="var(--fill-0, #724899)"/>
<path id="Vector_6" d="M33.5218 56.4181C32.9543 56.0776 33.1813 55.1696 32.5004 54.9425C31.8195 54.7155 30.9116 54.602 31.1385 53.694C31.3655 53.0129 32.2734 53.3535 32.7273 53.0129C33.6352 52.5589 34.6566 52.6724 35.5645 52.5589C35.3376 54.148 34.4297 55.2831 33.5218 56.4181Z" fill="var(--fill-0, #724899)"/>
<path id="Vector_7" d="M40.1037 48.4727C40.2172 47.7917 39.9903 46.9971 41.0117 46.7701C42.941 46.3161 44.1893 44.727 46.0051 43.9325C46.1186 44.273 46.0051 44.727 45.7781 44.954C44.5297 46.4296 42.8274 47.3377 41.4656 48.4727C41.0116 48.8132 40.4442 48.5862 40.1037 48.4727Z" fill="var(--fill-0, #724899)"/>
<path id="Vector_8" d="M18.9951 22.7068C18.5411 18.3936 19.7895 16.01 23.7616 16.691C21.6053 17.372 20.3569 18.9611 19.676 21.0042C19.449 21.5718 19.449 22.2528 18.9951 22.7068Z" fill="var(--fill-0, #724899)"/>
<path id="Vector_9" d="M46.0053 43.7055C46.1188 42.5704 45.8918 41.3219 47.2537 40.6408C47.8211 40.3003 47.5942 39.5058 47.8211 38.9383C48.2751 37.5762 48.8425 38.7112 49.2965 38.9383C48.729 40.8679 47.7076 42.5704 46.0053 43.7055Z" fill="var(--fill-0, #724899)"/>
<path id="Vector_10" d="M48.7291 17.5991C47.7077 17.7126 46.7998 17.2586 45.7784 17.0316C46.3458 15.8965 46.9133 14.875 47.3672 13.8534C48.2751 14.875 48.7291 16.1235 48.7291 17.5991Z" fill="var(--fill-0, #724899)"/>
<path id="Vector_11" d="M17.7467 24.4094C17.9737 23.8419 18.3142 23.5014 18.8816 23.2744C18.6546 24.6364 18.4276 25.885 17.6332 27.0201C17.2927 26.7931 17.1793 26.339 17.1793 25.9985C17.4063 25.431 17.6332 24.8635 17.7467 24.4094Z" fill="var(--fill-0, #724899)"/>
<path id="Vector_12" d="M0.38301 23.2744C1.06394 24.1824 1.40442 24.977 0.0425602 25.431C-0.0709279 24.6364 0.0425463 23.9554 0.38301 23.2744Z" fill="var(--fill-0, #724899)"/>
<path id="Vector_13" d="M49.6367 38.2572C49.2963 37.3491 49.0693 36.4411 50.4312 36.3276C50.5447 37.1221 50.3177 37.8031 49.6367 38.2572Z" fill="var(--fill-0, #724899)"/>
<path id="Vector_14" d="M50.8851 33.0359C50.0907 32.2413 50.8851 31.9008 51.4526 31.4468C51.4526 32.0143 51.4526 32.5818 50.8851 33.0359Z" fill="var(--fill-0, #724899)"/>
<path id="Vector_15" d="M50.9988 27.0201C50.9988 26.339 50.9988 25.658 50.9988 24.977C51.7932 25.5445 51.5662 26.339 51.3392 27.1336H51.2258L50.9988 27.0201Z" fill="var(--fill-0, #724899)"/>
<path id="Vector_16" d="M49.8636 19.4152C48.9557 19.3017 48.8422 18.7342 49.0692 18.0531C49.5231 18.3936 49.8636 18.8477 49.8636 19.4152Z" fill="var(--fill-0, #724899)"/>
<path id="Vector_17" d="M37.3802 50.4023C37.3802 49.6077 37.8342 49.2672 38.5151 49.3807C38.4016 50.0618 38.0611 50.4023 37.3802 50.4023Z" fill="var(--fill-0, #724899)"/>
<path id="Vector_18" d="M39.0822 49.1538C39.1957 49.0403 39.3091 48.8132 39.4226 48.8132C39.4226 49.0403 39.3091 49.1538 39.0822 49.1538Z" fill="var(--fill-0, #724899)"/>
<path id="Vector_19" d="M10.9373 31.1063C11.2778 32.0144 10.9373 32.5819 10.1429 33.0359C9.34846 32.9224 8.55403 33.0359 7.64613 32.4684C8.8945 31.9008 9.91592 31.5603 10.9373 31.1063Z" fill="var(--fill-0, #724899)"/>
<path id="Vector_20" d="M34.7697 4.31892C34.6562 5.34047 34.6562 6.36202 33.2943 5.22696C32.3864 4.54592 31.365 4.31891 30.3436 3.86489C31.819 3.52437 33.2943 3.41086 34.6562 4.0919L34.7697 4.31892Z" fill="var(--fill-0, #724899)"/>
<path id="Vector_21" d="M17.7466 24.4094C17.5196 24.977 17.4061 25.431 17.1792 25.9985C16.8387 25.9985 16.4982 25.9985 16.1577 25.9985C16.1577 25.7715 16.1577 25.658 16.1577 25.431C16.2712 24.2959 16.9522 24.2959 17.7466 24.4094Z" fill="var(--fill-0, #724899)"/>
<path id="Vector_22" d="M1.51799 29.2902C1.51799 29.1767 1.51803 28.9497 1.63152 28.8362C1.74501 28.4956 2.08549 28.2686 2.42595 28.3821C2.53944 28.3821 2.7664 28.6091 2.7664 28.6091C2.7664 29.0632 2.42589 29.1767 2.08543 29.2902C1.85845 29.1767 1.63148 29.1767 1.51799 29.2902Z" fill="var(--fill-0, #724899)"/>
<path id="Vector_23" d="M18.6546 17.3721C18.5411 17.5991 18.3141 17.7126 18.0871 17.5991C17.8601 17.4856 17.6332 17.2586 17.7467 17.0316C17.7467 16.9181 18.0871 16.8046 18.2006 16.8046C18.4276 16.8046 18.6546 16.9181 18.6546 17.3721Z" fill="var(--fill-0, #724899)"/>
<path id="Vector_24" d="M34.6564 4.20534C34.7698 3.97832 34.9968 3.75132 35.2238 3.86482C35.3373 3.86482 35.3373 3.97833 35.3373 4.09183C35.1104 4.20534 34.8833 4.31885 34.6564 4.43235C34.7698 4.31885 34.6564 4.20534 34.6564 4.20534Z" fill="var(--fill-0, #724899)"/>
<path id="Vector_25" d="M16.1578 25.431C16.1578 25.658 16.1578 25.7715 16.1578 25.9985C15.9308 25.885 15.4769 26.112 15.5903 25.658C15.5903 25.5445 15.9308 25.5445 16.1578 25.431Z" fill="var(--fill-0, #724899)"/>
<path id="Vector_26" d="M51.1121 27.1336C50.9986 27.3606 50.7716 27.5876 50.4312 27.4741C50.3177 27.4741 50.3176 27.3606 50.3176 27.2471C50.5446 27.2471 50.7716 27.1336 51.1121 27.1336Z" fill="var(--fill-0, #724899)"/>
</g>
</svg>
