<svg preserveAspectRatio="none" width="100%" height="100%" overflow="visible" style="display: block;" viewBox="0 0 145 124.4" fill="none" xmlns="http://www.w3.org/2000/svg">
<g id="Group">
<path id="Vector" d="M144.265 12.2014C144.698 14.6873 145.018 17.2297 144.999 19.7533C144.943 33.501 144.811 47.2488 144.604 60.9966C144.51 67.362 144.114 73.7086 142.513 79.9045C141.835 82.541 140.875 85.1211 139.82 87.6447C138.709 90.3001 136.6 91.9761 133.869 92.9743C129.801 94.4809 125.545 94.8764 121.27 95.14C112.306 95.6862 103.361 96.1758 94.3966 96.6843C93.9447 96.7031 93.5115 96.7973 92.9277 96.8726C94.1518 102.56 95.3382 108.059 96.487 113.596C96.939 115.781 97.3533 118.003 97.6546 120.206C97.8618 121.75 97.6358 123.276 96.035 124.067C94.4531 124.858 93.1537 124.123 91.9484 123.106C84.6791 116.967 77.4287 110.809 70.1029 104.726C66.6942 101.882 63.1725 99.1513 59.6509 96.4583C58.9918 95.9498 58.0878 95.592 57.278 95.5167C48.5021 94.7822 39.7263 94.1231 30.9504 93.4074C25.4137 92.9554 19.8769 92.4281 14.3402 91.9008C13.8129 91.8443 13.2856 91.6937 12.7583 91.543C8.67167 90.3754 6.69426 88.2473 6.56243 84.01C6.31761 76.8348 6.24227 69.6407 6.37409 62.4655C6.48709 55.5351 6.80728 48.5859 7.29692 41.6744C7.97488 31.8626 8.74699 22.032 11.0445 12.4274C11.4589 10.7513 12.0615 9.09404 12.7394 7.49327C14.5474 3.12411 17.9748 0.901871 22.5699 0.299229C27.278 -0.341078 31.9673 0.167399 36.6189 0.694711C47.8806 1.99416 59.1424 2.23897 70.4607 1.93765C79.3872 1.69283 88.3326 1.88116 97.2591 1.93765C107.316 2.01298 117.372 2.18249 127.429 2.25782C129.406 2.25782 131.421 1.76817 133.38 1.91883C139.707 2.38964 143.116 5.62884 144.246 12.2391L144.265 12.2014ZM139.858 22.1262C139.858 18.8305 139.5 15.4783 138.935 12.2202C138.276 8.43489 136.318 7.02245 132.476 7.07895C130.856 7.09778 129.237 7.3991 127.636 7.3991C119.952 7.38027 112.25 7.28611 104.566 7.22961C94.3025 7.13545 84.02 6.64579 73.7752 7.04128C59.8957 7.56859 46.1292 7.00362 32.344 5.55352C29.1048 5.21453 25.8091 5.42168 22.5323 5.62883C20.0841 5.77949 18.3515 7.24844 17.5229 9.54601C16.7884 11.5611 16.0916 13.6327 15.6585 15.7231C13.6058 25.6667 12.7583 35.7798 12.2686 45.8928C11.7413 56.9287 11.666 67.9835 11.4589 79.0382C11.4212 80.5636 11.6848 82.1079 11.7413 83.6333C11.8167 85.4224 12.7771 86.364 14.472 86.6089C17.5229 87.0232 20.5549 87.5881 23.6058 87.7388C34.8487 88.3226 46.0727 89.0194 57.278 90.2435C59.5567 90.4884 61.5341 91.1663 63.2855 92.6353C72.3627 100.112 81.4588 107.57 90.536 115.027C90.8373 115.291 91.1574 115.536 91.6471 115.931C91.5717 115.385 91.5341 115.103 91.4776 114.82C90.1593 108.737 88.8411 102.654 87.5228 96.5713C87.0332 94.3114 87.956 92.7106 90.1594 92.0891C91.1198 91.8255 92.1179 91.6372 93.0972 91.5807C100.611 91.1099 108.107 90.7144 115.621 90.2435C119.519 89.9987 123.455 89.8857 127.278 89.2454C134.284 88.0778 134.849 87.494 136.864 81.0909C138.747 75.0833 139.255 68.8497 139.387 62.635C139.688 49.132 139.82 35.6291 139.877 22.1262H139.858Z" fill="var(--fill-0, #F90A46)"/>
<path id="Vector_2" d="M136.694 67.9646C137.617 68.3601 137.805 69.3206 137.41 70.6389C136.977 72.0513 136.694 73.5203 136.355 74.9515C136.11 75.912 135.602 76.6088 134.66 76.6841C133.549 76.6841 132.683 75.799 132.871 74.7632C133.21 72.9553 133.625 71.1285 134.19 69.3771C134.623 68.04 135.696 67.5692 136.694 67.9835V67.9646Z" fill="var(--fill-0, #F90A46)"/>
<path id="Vector_3" d="M135.96 20.1111C136.073 31.9379 135.979 43.7648 135.941 55.6104C135.941 56.2696 135.884 56.9476 135.696 57.5879C135.433 58.5295 134.773 59.1133 133.756 58.9438C132.702 58.7743 132.269 58.0399 132.288 56.9664C132.457 50.9588 132.626 44.9324 132.796 38.9248C132.739 38.9248 132.664 38.9248 132.589 38.9248C132.589 33.1997 132.664 27.4558 132.551 21.7307C132.513 19.7721 132.08 17.7947 131.572 15.8737C131.327 14.9321 130.611 14.0846 129.952 13.3125C129.274 12.5215 128.935 11.7494 129.613 10.8643C130.272 10.0168 131.308 9.88499 132.043 10.563C133.003 11.4858 134.039 12.5404 134.491 13.7457C135.244 15.7796 135.941 17.983 135.96 20.1111Z" fill="var(--fill-0, #F90A46)"/>
<path id="Vector_4" d="M124.02 19.9604C124.886 20.6384 124.924 21.5988 124.302 22.4086C122.024 25.3465 119.632 28.1902 116.28 29.9228C115.131 30.5255 115.018 31.1469 115.187 32.2392C116.393 40.1866 115.884 48.0586 113.869 55.8364C113.003 59.151 111.666 62.296 109.067 64.6877C106.506 67.023 103.606 68.3224 100.084 67.1736C98.2572 66.571 96.8259 65.4034 95.6395 63.8968C92.6263 60.0738 91.0444 55.6481 90.5547 50.8646C89.8014 43.4258 90.3664 36.0811 92.7016 28.9624C94.1141 24.6874 96.1103 20.676 99.0481 17.2108C100.197 15.8549 101.553 14.8568 103.267 14.2541C104.792 13.708 106.11 13.9151 107.41 14.7249C109.425 16.0056 110.95 17.757 111.911 19.9227C112.909 22.2015 113.7 24.5367 114.735 27.2486C116.525 25.5537 118.238 23.9717 119.914 22.3145C120.536 21.7118 121.044 20.9774 121.628 20.3371C122.325 19.5649 123.172 19.2824 124.058 19.9604H124.02ZM110.122 56.0813C112.363 48.4917 112.739 40.7516 111.76 32.9172C111.609 31.6554 111.176 31.3164 109.971 31.2223C106.826 30.9586 104.208 29.5838 102.494 26.8908C101.477 25.29 100.724 23.5386 99.7638 21.693C98.728 23.8399 97.5039 25.968 96.6376 28.2279C93.8127 35.4219 93.3607 42.9173 94.0387 50.5257C94.4154 54.8383 95.7901 58.812 98.6715 62.1077C100.762 64.4994 103.436 64.6689 105.96 62.7291C108.163 61.0342 109.349 58.6613 110.103 56.0813H110.122ZM110.931 27.9077C110.781 27.2109 110.724 26.7589 110.592 26.3446C109.764 23.5197 108.954 20.6572 106.656 18.6045C106.148 18.1525 105.15 18.0206 104.415 18.1148C104.095 18.1525 103.719 19.0753 103.624 19.6214C103.172 22.3521 105.602 26.307 108.295 27.2674C109.086 27.5499 109.933 27.6629 110.913 27.9077H110.931Z" fill="var(--fill-0, #F90A46)"/>
<path id="Vector_5" d="M105.225 116.553C105.508 117.588 105.357 118.492 104.34 119.001C103.304 119.528 102.287 118.907 101.892 117.475C101.12 114.632 100.404 111.788 99.6508 108.944C99.1423 107.061 98.5773 105.197 98.0688 103.313C97.937 102.805 97.8806 102.24 97.9371 101.713C98.0689 100.451 98.8975 99.6787 99.9333 99.7352C100.969 99.8105 101.44 100.507 101.421 102.296C101.553 102.805 101.779 103.671 102.024 104.556C103.097 108.549 104.171 112.56 105.244 116.571L105.225 116.553Z" fill="var(--fill-0, #F90A46)"/>
<path id="Vector_6" d="M87.6358 67.8893C87.6547 69.2829 86.9955 70.1868 85.9409 70.2057C84.8486 70.2245 84.0577 69.3017 84.02 67.8893C83.9258 61.9193 83.8317 55.9306 83.7564 49.9607C83.5869 38.8306 83.4174 27.7006 83.2667 16.5705C83.2667 16.0056 83.2855 15.3087 83.6057 14.9133C83.9823 14.4613 84.6792 14.0658 85.2253 14.0846C85.7149 14.0846 86.2611 14.6684 86.6189 15.1204C86.8449 15.4029 86.826 15.9114 86.826 16.3257C87.0332 24.9698 87.2215 33.5952 87.4287 42.2393C87.3722 42.2393 87.2968 42.2393 87.2403 42.2393C87.3722 50.7893 87.504 59.3393 87.6358 67.8893Z" fill="var(--fill-0, #F90A46)"/>
<path id="Vector_7" d="M83.8317 100.884C83.2856 101.562 83.0031 102.278 82.5888 102.353C81.9485 102.485 81.0634 102.409 80.5549 102.052C78.8035 100.865 77.2027 99.4527 75.5078 98.2097C72.5323 96.0252 69.5003 93.9159 66.4871 91.769C66.054 91.4677 65.489 91.1287 65.3383 90.6956C65.15 90.1494 65.1124 89.2643 65.4325 88.8876C65.8091 88.4733 66.6189 88.3603 67.2592 88.285C67.5606 88.2473 67.9372 88.5675 68.2385 88.7746C72.8148 92.0892 77.3911 95.3849 81.9297 98.7559C82.6453 99.2832 83.1538 100.093 83.8506 100.884H83.8317Z" fill="var(--fill-0, #F90A46)"/>
<path id="Vector_8" d="M74.9805 67.5503C74.9805 68.153 74.7921 68.9063 74.3967 69.3583C73.6245 70.2622 72.2121 69.9798 71.7413 68.8686C71.553 68.4355 71.4964 67.9082 71.4776 67.4185C71.1386 50.601 70.8185 33.7647 70.4983 16.9472C70.4983 16.2881 70.4983 15.6101 70.6113 14.9698C70.7808 14.0847 71.4399 13.595 72.3062 13.6327C73.2478 13.6704 73.8317 14.273 73.9258 15.2146C74.02 16.1186 74.0765 17.0414 74.0953 17.9454C74.2648 25.8739 74.4343 33.8212 74.6038 41.7497C74.5661 41.7497 74.5473 41.7497 74.5096 41.7497C74.6791 50.3562 74.8486 58.9438 74.9616 67.5503H74.9805Z" fill="var(--fill-0, #F90A46)"/>
<path id="Vector_9" d="M66.2612 56.5144C66.4495 57.1359 66.6567 57.8516 66.506 58.4542C65.9975 60.5823 65.5643 62.7857 64.698 64.7631C62.6453 69.3771 57.3535 69.7726 54.4344 65.6671C52.57 63.0682 52.0239 60.055 51.8356 56.9476C51.5342 51.9758 51.3271 46.9852 51.1764 43.8401C51.3271 34.857 51.4401 27.7195 52.7583 20.6761C53.0031 19.3578 53.474 18.0207 54.0578 16.8154C55.1877 14.4613 56.9768 13.3879 58.9165 13.6327C61.4589 13.9528 63.6058 15.7608 64.2084 18.096C64.8676 20.6384 63.4928 23.501 60.7998 24.7251C59.4627 25.3466 57.9749 25.6667 56.5437 26.0245C55.828 26.2128 55.4514 26.4388 55.3761 27.2863C54.3968 37.7007 54.5286 48.134 55.5644 58.5295C55.7339 60.281 56.4307 62.0889 57.3158 63.6332C58.5022 65.6859 60.7621 65.4599 61.5719 63.2377C62.2687 61.3168 62.5889 59.264 62.909 57.2301C63.0597 56.2508 63.3045 55.5163 64.3214 55.328C65.2819 55.1585 65.9598 55.6482 66.2423 56.5333L66.2612 56.5144ZM60.7809 19.7909C61.2329 18.8305 60.4231 17.757 59.2932 17.305C58.2197 16.8719 57.5794 17.3804 57.2404 18.2843C56.7131 19.6026 56.3177 20.9774 55.7339 22.6912C56.8262 22.4087 57.4664 22.258 58.1067 22.0885C58.4269 21.9944 58.8224 21.9755 59.0295 21.7684C59.6698 21.1657 60.4231 20.5819 60.7809 19.8286V19.7909Z" fill="var(--fill-0, #F90A46)"/>
<path id="Vector_10" d="M49.293 66.3262C49.3306 67.6633 48.6715 68.5108 47.6546 68.5861C46.6 68.6426 45.8467 67.7951 45.7902 66.3827C45.6207 62.7669 45.47 59.1698 45.3194 55.554C45.3194 55.2338 45.2817 54.9137 45.244 54.5182C41.8354 54.763 38.502 55.0078 35.0369 55.2527C35.018 55.6858 34.9804 56.119 34.9616 56.571C34.8674 60.3563 34.7732 64.1228 34.679 67.9081C34.679 68.3225 34.7544 68.8686 34.5284 69.1134C34.0764 69.6219 33.455 70.281 32.8711 70.3187C32.3627 70.3564 31.6282 69.7161 31.3457 69.1888C31.0632 68.6615 31.1198 67.9082 31.1386 67.249C31.3646 53.4636 31.6094 39.6593 31.8165 25.8739C31.8542 23.2185 31.7224 20.5631 31.6847 17.9077C31.6847 17.531 31.6847 17.1544 31.7977 16.7966C32.099 15.7984 32.8335 15.2711 33.8693 15.4406C34.9239 15.6101 35.357 16.3069 35.357 17.3992C35.2252 28.6234 35.1311 39.8288 35.0181 51.053C35.0181 51.2225 35.0557 51.3732 35.0934 51.7122C38.4455 51.4673 41.7035 51.2413 45.1122 50.9965C44.9804 48.0775 44.8297 45.3091 44.7356 42.5407C44.4908 34.0284 44.2647 25.516 44.0387 17.0037C44.0199 15.9491 44.3777 15.1016 45.5641 14.9133C46.5434 14.7626 47.3721 15.516 47.4851 16.7589C47.6357 18.322 47.6546 19.9039 47.7111 21.4859C48.1065 32.7854 48.502 44.0661 48.8975 55.3656C49.0293 59.0192 49.18 62.6727 49.293 66.3262Z" fill="var(--fill-0, #F90A46)"/>
<path id="Vector_11" d="M39.9521 81.317C41.1197 81.3546 41.9295 82.1079 41.9107 83.106C41.8919 84.0477 41.0444 84.801 39.9898 84.801C38.841 84.801 37.937 83.9347 37.9935 82.8989C38.05 81.9196 38.841 81.2604 39.9521 81.2981V81.317Z" fill="var(--fill-0, #F90A46)"/>
<path id="Vector_12" d="M33.6059 80.3376C34.1709 80.6578 34.943 81.3169 34.943 81.8065C34.943 82.4092 34.265 83.3885 33.7377 83.5015C32.5701 83.7463 31.2895 83.6898 30.0843 83.5015C29.1427 83.3508 28.6153 82.5598 28.8036 81.5617C28.9919 80.5636 29.6887 80.1304 30.6869 80.1304C31.0635 80.1304 31.4213 80.1681 31.798 80.1869C31.798 80.1869 31.798 80.1493 31.798 80.1304C32.4194 80.1869 33.1163 80.074 33.6059 80.3376Z" fill="var(--fill-0, #F90A46)"/>
<path id="Vector_13" d="M24.1708 9.48953C25.5079 9.05638 26.9015 10.4312 26.3742 11.7118C25.941 12.7852 25.0747 13.6704 24.3779 14.6496C24.0201 15.1581 23.4174 15.5913 23.3233 16.1374C22.683 19.6779 22.0992 23.2561 21.5719 26.8155C19.3497 42.0322 18.2386 57.3619 17.6359 72.7104C17.4853 76.5523 18.2197 77.6823 21.7414 79.17C22.2687 79.396 22.8337 79.6032 23.3045 79.9421C24.1143 80.5071 24.4156 81.3358 23.9448 82.2209C23.474 83.106 22.6453 83.3509 21.7037 82.9365C20.7433 82.5222 19.7828 82.1456 18.86 81.6936C15.6962 80.1681 14.1896 77.5881 14.1331 74.1229C14.0955 72.0136 14.1331 69.8856 14.1331 67.7763C14.9806 56.7593 15.489 45.7234 17.0521 34.7628C17.9184 28.6799 18.6905 22.597 19.6133 16.5329C19.9146 14.4802 20.6491 12.4839 22.0804 10.902C22.6454 10.2805 23.4175 9.73435 24.1896 9.48953H24.1708Z" fill="var(--fill-0, #F90A46)"/>
<path id="Vector_14" d="M7.67352 91.5995C7.91834 92.1645 8.01254 93.125 7.71122 93.5016C7.35341 93.9536 6.33646 94.2926 5.82798 94.0854C5.09352 93.803 4.34019 93.125 3.96354 92.4093C1.06336 87.1362 -0.593894 81.5618 0.197066 75.46C0.215898 75.2529 0.253597 75.0457 0.291262 74.8386C0.554915 73.6898 1.32702 73.0495 2.26864 73.1813C3.21026 73.3131 3.7941 74.1418 3.77526 75.3094C3.66227 75.3094 3.54923 75.3094 3.43624 75.3282C3.66222 78.1342 3.51159 81.0156 4.22722 83.6899C4.96168 86.4394 6.58128 88.9253 7.71122 91.5807L7.67352 91.5995Z" fill="var(--fill-0, #F90A46)"/>
</g>
</svg>
