<svg preserveAspectRatio="none" width="100%" height="100%" overflow="visible" style="display: block;" viewBox="0 0 84.3592 57.4562" fill="none" xmlns="http://www.w3.org/2000/svg">
<g id="Group">
<path id="Vector" d="M60.3961 41.1002C56.6 41.1002 55.7565 39.8346 57.6545 36.4598C58.2872 35.4052 58.9199 34.3506 59.9744 33.7178C64.8249 30.343 69.6755 26.7573 74.7369 23.5934C76.8458 22.1169 81.0637 23.5933 82.1181 25.9135C83.3835 28.2337 81.9072 29.7102 80.2201 30.9758C75.3695 34.1397 70.3081 37.0926 65.2467 40.2564C63.7705 41.1002 62.0832 41.1002 60.3961 41.1002Z" fill="var(--fill-0, #FACF71)"/>
<path id="Vector_2" d="M43.9466 41.3111C45.6337 41.5221 47.9535 40.6783 48.7971 42.9985C49.4297 44.8969 47.5318 45.9515 46.2665 47.0062C42.2595 50.8029 37.6198 53.7558 32.7693 56.4979C30.0277 58.1853 26.8643 57.1306 23.9118 57.1306C22.8573 57.1306 22.6464 56.2869 22.4355 55.4432C22.2246 53.9667 22.4356 52.7012 23.7009 51.8575C25.8098 50.5919 27.9188 49.1154 30.0277 47.6389C32.5584 45.9515 35.3 44.6859 37.8308 42.9985C39.7288 41.733 41.6267 41.1002 43.9466 41.3111Z" fill="var(--fill-0, #FACF71)"/>
<path id="Vector_3" d="M3.03338 29.7101C0.924448 29.7101 -0.34096 28.2337 0.0808258 26.3353C0.291718 25.4916 0.713452 24.8588 1.34613 24.2261C5.77488 20.0075 10.6254 16.2109 16.5304 14.1016C17.5849 13.6798 18.8503 13.2578 19.9048 12.836C21.1701 12.2032 22.4354 11.7814 23.4899 13.2579C24.5443 14.9453 24.7553 16.8437 23.0682 18.3202C21.5919 19.5857 20.1157 20.4294 18.4285 21.484C16.5305 22.7496 14.2107 23.5932 12.5235 25.4916C10.2037 28.8664 5.98587 28.2336 3.03338 29.7101Z" fill="var(--fill-0, #FACF71)"/>
<path id="Vector_4" d="M61.4506 3.97718C61.4506 5.24273 60.6071 5.87554 59.5526 6.50832C53.8585 10.5159 47.3209 12.2033 40.5723 13.258C39.096 13.4689 38.2525 13.047 37.8307 11.7815C37.198 10.305 37.6198 9.0394 38.8852 8.1957C40.9941 6.71922 42.8921 5.24281 45.212 4.18818C47.5318 3.13355 49.8515 2.07884 51.9604 0.813284C54.9129 -0.874125 57.6546 0.391483 60.6071 1.65704C61.2398 2.28982 61.6615 2.92255 61.4506 3.97718Z" fill="var(--fill-0, #FACF71)"/>
<path id="Vector_5" d="M63.7705 21.9059C62.716 21.9059 61.6616 22.1168 61.0289 20.8512C60.3962 19.5857 61.2398 18.742 62.0834 17.6873C63.3487 16.2109 65.2467 15.5782 66.7229 14.7344C69.8863 12.8361 73.4716 11.3596 76.8459 9.46129C78.1112 8.82851 79.7983 9.25034 81.2746 9.03941C82.7508 9.03941 84.0162 9.67219 84.2271 11.1487C84.6489 12.6252 84.0161 14.3126 82.9617 14.7344C76.6349 17.4765 70.9408 21.484 63.7705 21.9059Z" fill="var(--fill-0, #FACF71)"/>
<path id="Vector_6" d="M46.4772 18.3202C46.899 18.3202 47.11 18.3202 47.3209 18.3202C48.7971 18.5312 50.906 18.1093 51.3277 20.4295C51.7495 22.5388 50.4842 24.0152 48.5862 24.648C43.5247 26.5464 39.096 29.4992 33.4019 29.7102C31.5038 29.7102 30.6602 29.2884 29.8167 27.8119C28.9731 26.1245 29.8167 24.2261 31.0821 24.0151C36.1435 22.9605 40.3614 19.5858 45.2119 18.3202C45.8446 18.1093 46.2663 18.3202 46.4772 18.3202Z" fill="var(--fill-0, #FACF71)"/>
<path id="Vector_7" d="M5.98576 47.8499C4.50951 47.8499 3.45507 47.6388 3.24418 46.1624C3.03329 44.8968 2.82239 43.2095 4.29864 42.5767C9.14917 40.2565 13.5779 36.6708 19.0611 35.827C20.1156 35.6161 21.1701 35.827 21.5919 36.8817C22.2245 38.3582 22.6463 40.0456 21.1701 41.1002C16.5304 44.475 11.469 46.5843 5.98576 47.8499Z" fill="var(--fill-0, #FACF71)"/>
</g>
</svg>
