<?xml version="1.0" encoding="UTF-8" standalone="no"?><!DOCTYPE svg PUBLIC "-//W3C//DTD SVG 1.1//EN" "http://www.w3.org/Graphics/SVG/1.1/DTD/svg11.dtd"><svg width="100%" height="100%" viewBox="0 0 115 70" version="1.1" xmlns="http://www.w3.org/2000/svg" xmlns:xlink="http://www.w3.org/1999/xlink" xml:space="preserve" xmlns:serif="http://www.serif.com/" style="fill-rule:evenodd;clip-rule:evenodd;stroke-linejoin:round;stroke-miterlimit:2;"><g><path d="M95.768,48.62c-2.223,-1.134 -3.936,-1.778 -4.287,-1.91c-10.771,-4.048 -6.289,-8.404 -4.059,-8.402c0.995,0.001 23.958,8.754 25.321,9.952c4.436,3.898 -0.682,7.843 -7.123,12.019c-5.88,3.812 -5.849,3.751 -11.657,7.6c-0.519,0.344 -7.42,4.917 -7.764,-0.543c-0.28,-4.435 12.175,-8.588 11.18,-10.42c-0.38,-0.699 -1.562,-0.69 -1.941,-1.39c0.366,-1.281 2.449,-1.555 2.815,-2.836c0,-0 -2.286,-3.745 -2.484,-4.07Z" style="fill:#070707;"/><path d="M11.808,11.612c0.969,1.23 9.762,10.82 4.65,11.406c-4.266,0.489 -18.409,-19.244 -16.231,-22.043c2.48,-3.187 4.907,1.725 11.581,10.637Z" style="fill:#080708;"/><path d="M95.768,48.62c0.199,0.326 2.484,4.07 2.484,4.07c-0.366,1.281 -2.449,1.555 -2.815,2.836c-1.969,0.068 -1.92,0.047 -3.929,0.135c-5.315,0.233 -21.057,-1.12 -20.982,-4.955c0.105,-5.416 22.444,2.492 24.695,-0.189c0.423,-0.504 0.125,-1.392 0.548,-1.896Z" style="fill:#0f0c11;"/><path d="M43.437,45.037c-0.987,-0.508 -10.224,-5.259 -11.925,-7.099c-1.406,-1.522 -1.608,-6.985 5.356,-2.883c15.33,9.032 18.622,9.261 15.735,12.041c-2.074,1.997 -8.704,-1.866 -9.166,-2.06Z" style="fill:#0c0b0c;"/></g></svg>