<?xml version="1.0" encoding="UTF-8" standalone="no"?><!DOCTYPE svg PUBLIC "-//W3C//DTD SVG 1.1//EN" "http://www.w3.org/Graphics/SVG/1.1/DTD/svg11.dtd"><svg width="100%" height="100%" viewBox="0 0 1064 818" version="1.1" xmlns="http://www.w3.org/2000/svg" xmlns:xlink="http://www.w3.org/1999/xlink" xml:space="preserve" xmlns:serif="http://www.serif.com/" style="fill-rule:evenodd;clip-rule:evenodd;stroke-linejoin:round;stroke-miterlimit:2;"><g><g><path d="M96.67,809.825c-25.208,-15.375 -30.958,-32.708 -46.583,-139.625c-34.125,-234.333 -37.125,-256.625 -44,-326.625c-7.292,-74.583 -8.208,-169.75 -1.792,-186.625c8.792,-23.25 32.042,-41 58.708,-44.833c7.667,-1.083 37.333,-6.833 66,-12.75c57.083,-11.792 186.333,-31.167 360.417,-53.958c61.875,-8.083 126.583,-16.583 143.75,-18.875c17.167,-2.292 50.917,-6.042 75,-8.333c24.083,-2.292 59.667,-6 79.167,-8.25c92.125,-10.75 128.375,-12.417 150.042,-6.792c25.292,6.583 44.458,23.458 49.875,43.958c10.625,40.375 17.542,80.5 27.25,158.5c5.833,46.958 13.292,104.167 16.542,127.083c34.292,241.208 39.542,307.542 26,328.292c-9.875,15.042 -17.583,14.958 -12.875,-0.167c6.083,-19.542 2.792,-65.75 -12.458,-173.958c-8.083,-57.292 -20.833,-153.375 -28.333,-213.542l-13.667,-109.375l-41.792,1.75c-23,0.958 -44.667,2.792 -48.083,4.042c-8.5,3.125 -165.5,25.458 -250,35.542c-37.792,4.542 -110.917,13.958 -162.5,20.917c-51.583,7 -103.125,13.75 -114.583,15.083c-11.458,1.292 -54.583,7.75 -95.833,14.375c-41.25,6.583 -104.042,15.958 -139.583,20.833c-35.542,4.833 -75.833,11.042 -89.583,13.792l-25,4.917l1.375,29.167c1.792,39.208 42.583,334.417 57.417,415.625c8,43.875 19.417,57.292 48.833,57.292c17.958,0 144.917,-16.042 212.333,-26.875c204.25,-32.708 337.542,-49.833 339.75,-43.625c2.167,5.917 19.917,4.542 25.333,-1.958c2.667,-3.208 17.167,-7 32.792,-8.583c36.583,-3.667 149.917,-18.125 183.5,-23.417c14.458,-2.25 41.625,-4.708 60.417,-5.458l34.083,-1.292l-17.542,7.75c-18.042,8 -72.708,17.458 -140.083,24.25c-21,2.125 -56.958,6.792 -79.875,10.375c-22.917,3.583 -59.75,7.167 -81.833,8c-22.083,0.792 -41.917,2.542 -44.083,3.833c-5.208,3.25 -108.458,20.458 -215.75,36c-48.125,6.958 -129.583,19.208 -181,27.25c-109.083,17 -142.042,18.292 -161.75,6.292Zm82.333,-556.167c159.958,-23.458 297.625,-42.167 354.167,-48.208c24.083,-2.583 88.75,-11.042 143.75,-18.833c172.625,-24.375 202.75,-27.792 226.708,-25.792c13.5,1.167 31.167,-0.375 42.042,-3.625c10.333,-3.125 23.917,-5.667 30.208,-5.708c13.208,-0.042 12.875,3.125 5.542,-55.375c-6.458,-51.542 -18.042,-75.292 -39.042,-79.875c-12.042,-2.667 -142.417,9.125 -227.958,20.583c-25.208,3.375 -75.833,9.917 -112.5,14.5c-220.667,27.583 -501.083,68.375 -536.167,77.917c-43.5,11.875 -51.625,29.625 -46.917,102.417l2.958,45.708l15.083,-2.542c8.25,-1.375 72.208,-10.917 142.125,-21.167Z" style="fill:#6948bc;fill-rule:nonzero;"/><path d="M179.878,671.242c-6.208,-7.542 -38.167,-240.292 -38.333,-279.083c-0.083,-21.458 9.042,-26.083 66.625,-34c26.375,-3.625 67.583,-9.583 91.667,-13.25c86.958,-13.208 192.958,-26.042 198.375,-23.958c7.375,2.833 8.833,8.458 15.917,61.75c21.208,159.958 28.708,232.417 24.625,238.917c-5.208,8.333 -25.792,12.5 -155.583,31.708c-167.292,24.75 -195.583,27.25 -203.292,17.917Zm226.208,-37.917c41.25,-5.875 83.333,-11.708 93.542,-12.958c10.167,-1.208 20.292,-4 22.417,-6.125c2.417,-2.417 -0.208,-37.583 -6.917,-92.708c-5.958,-48.875 -13.042,-110.292 -15.75,-136.542l-4.958,-47.75l-26.625,29c-74.292,80.958 -114.542,126.542 -114.5,129.667c0.083,3.333 10.417,10.167 114.542,75.542c26.625,16.75 49.417,32 50.625,33.958c1.167,1.917 -0.5,4.542 -3.792,5.792c-5.417,2.083 -28.292,-11.167 -137.458,-79.667l-37.208,-23.333l-24.375,26.833c-74.5,81.958 -111.083,123.875 -109.5,125.5c1,0.958 29.5,-2.333 63.375,-7.375c33.875,-5 95.333,-13.958 136.583,-19.833Zm-141.667,-63.125c32.083,-36 58.917,-67 59.667,-68.958c1.375,-3.708 -11.833,-12.708 -93,-63.542c-27.5,-17.208 -54.917,-35.167 -60.917,-39.875c-6,-4.75 -11.75,-7.75 -12.792,-6.667c-1.042,1.042 -0.417,13.625 1.375,27.958c1.833,14.333 7.167,57 11.833,94.833c9.375,75.708 16.792,128 19.542,137.292c1.292,4.417 3.708,3.083 8.875,-4.75c3.875,-5.958 33.333,-40.292 65.417,-76.292Zm86.583,-96.833c7.375,-8.583 38.5,-42.417 69.167,-75.167c30.667,-32.75 54.917,-60.417 53.875,-61.417c-1,-1 -17.667,0.833 -37,4.125c-19.292,3.292 -59.208,9.042 -88.583,12.75c-65.375,8.25 -164.875,25.167 -168.333,28.625c-1.375,1.375 -1.75,3.042 -0.792,3.708c21.458,15.083 74.125,49.125 108,69.75c24.083,14.667 44.375,28.125 45.125,29.917c2.333,5.458 4.542,3.958 18.542,-12.292Z" style="fill:#6948bc;fill-rule:nonzero;"/></g></g></svg>