<?xml version="1.0" encoding="UTF-8" standalone="no"?><!DOCTYPE svg PUBLIC "-//W3C//DTD SVG 1.1//EN" "http://www.w3.org/Graphics/SVG/1.1/DTD/svg11.dtd"><svg width="100%" height="100%" viewBox="0 0 632 432" version="1.1" xmlns="http://www.w3.org/2000/svg" xmlns:xlink="http://www.w3.org/1999/xlink" xml:space="preserve" xmlns:serif="http://www.serif.com/" style="fill-rule:evenodd;clip-rule:evenodd;stroke-linejoin:round;stroke-miterlimit:2;"><path d="M274.139,428.874c-38.167,-5.25 -83.208,-27.917 -111.292,-56l-23.042,-23.042l-37.042,0c-49.792,0 -77.833,-6.417 -92.625,-21.25c-10.375,-10.333 -11.5,-13.875 -9.042,-27.583c6.042,-33.375 27.375,-56.458 74.958,-81.125c25.958,-13.458 26.292,-13.875 29.042,-34.542c2.833,-21.417 19,-66.833 30.458,-85.5c26.667,-43.5 68.167,-77.208 112.708,-91.542c25.542,-8.208 35.875,-9.25 74.417,-7.667c37.583,1.583 48.917,3.75 70.75,13.583c14.292,6.458 28.333,14.583 31.25,18.083c4.583,5.625 4.125,5.792 -3.833,1.542c-5.042,-2.667 -12.542,-4.75 -16.667,-4.667c-4.542,0.083 -1,3.458 8.708,8.292c8.958,4.5 19.875,11.375 24.208,15.292c6.375,5.75 8.583,6.083 11.333,1.667c2.542,-4.125 7.75,-1.542 21.208,10.583l17.792,16.083l42.792,-1.5c49.458,-1.708 79.708,5.833 93.417,23.208c9.875,12.583 10.875,34.333 2.292,50.875c-8.375,16.25 -41.958,45.417 -72.292,62.833c-23.042,13.208 -25.625,16.125 -27.958,31.25c-4,25.833 -14.292,56 -28.167,82.458c-13.125,24.958 -51.792,64.5 -74.792,76.375c-40.417,20.917 -97.042,29.417 -148.583,22.292Zm113.875,-37.542c33.542,-16.542 71.958,-50.375 87.708,-77.208c6,-10.25 12.375,-17.75 14.208,-16.625c4.417,2.708 19.542,-25.708 22.75,-42.792c4.542,-24.25 -6.958,-12.75 -13.333,13.333c-3.208,13.125 -6.625,23.042 -7.583,22.083c-1,-1 0.417,-10.5 3.083,-21.208c2.708,-10.667 3.917,-20.417 2.708,-21.625c-1.25,-1.208 -10.083,1.792 -19.708,6.708c-9.625,4.917 -18.25,8.125 -19.208,7.208c-0.917,-0.958 5.833,-5.125 15.042,-9.292c17.833,-8.042 29.917,-18.75 21.125,-18.75c-2.667,0 -9.917,2.583 -16.125,5.708c-6.167,3.167 -15.917,6.958 -21.667,8.458c-5.75,1.5 2.167,-3.875 17.5,-11.917c25.417,-13.333 28.167,-16.083 30.542,-30.333c1.417,-8.625 4.5,-20.75 6.875,-26.958c3.25,-8.583 2.542,-17.083 -3.042,-35.417c-8.292,-27.208 -11.667,-32.542 -18.125,-28.542c-3.125,1.917 -2.583,7.375 1.75,17.792c3.458,8.25 5.542,15.708 4.667,16.625c-0.917,0.875 -4.667,-6.042 -8.417,-15.375c-3.75,-9.333 -9.583,-18.042 -13.042,-19.375c-3.417,-1.333 -6.208,-4.25 -6.208,-6.542c0,-7.75 -25.708,-36.708 -43.125,-48.583c-55.625,-37.958 -124.833,-42 -188.458,-11c-51.875,25.292 -87.958,70.417 -103.333,129.25c-5.042,19.292 -5.333,25.833 -1.375,30.625c3.958,4.792 3.917,6.5 -0.167,7.875c-3.5,1.167 -5.208,11.208 -5.208,30.458c0,22.792 2.333,33.5 11.292,51.75c11,22.417 11.708,23 28.708,23c22.333,0 74.375,-9.792 134.583,-25.333c26.167,-6.75 48.333,-11.5 49.292,-10.542c0.958,0.958 -4.292,3.083 -11.625,4.667c-17.292,3.792 -7.542,11.333 10.667,8.25c12.125,-2.042 12.208,-1.958 2.083,2.417c-17.5,7.583 -105.583,31.958 -142.375,39.375c-19.083,3.875 -35.5,7.792 -36.458,8.708c-0.958,0.875 6.542,9.167 16.667,18.417c15.875,14.458 16.833,16.208 6.958,12.583c-19.75,-7.208 -13.167,3.5 7.625,12.458c23,9.833 25.167,10.042 18.292,1.792c-4.667,-5.625 -3.875,-5.875 6.458,-1.917c6.5,2.458 14.042,3.583 16.833,2.542c2.75,-1.083 8.625,0.542 13,3.625c11,7.708 27,9.833 65.917,8.792c28.5,-0.792 37.542,-3 62.25,-15.167Z" style="fill:#6948bc;fill-rule:nonzero;"/></svg>